# xmcd
#
# Track frame offsets: 
#        150
#        10075
#        24463
#        41530
#        57723
#        76593
#        92940
#        102930
#        118470
#        136295
#        151100
#        174558
#
# Disc length: 2604 seconds
#
# Revision: 1
# Processed by: cddbd v1.5.2PL0 Copyright (c) Steve Scherf et al.
# Submitted via: ExactAudioCopy v1.0b3
#
DISCID=940a2a0c
DTITLE=南佳孝 - ブルー・ヌード VICJ-60908
DYEAR=2002
DGENRE=Jazz
TTITLE0=ワン・ノート・サンバ 
TTITLE1=ユー・ドゥ・サムシング・トゥ・ミー
TTITLE2=ソー・ナイス（サマー・サンバ） 
TTITLE3=フェリシダージ 
TTITLE4=ふたりのシーズン
TTITLE5=コルコヴァード
TTITLE6=ソ・ダンソ・サンバ
TTITLE7=ユー・ネヴァー・キャン・テル
TTITLE8=アントニオの歌 
TTITLE9=雨に微笑を 
TTITLE10=パラディソ 
TTITLE11=ミッドナイト・ラヴ・コール 
EXTD=YEAR: 2002
EXTT0=
EXTT1=
EXTT2=
EXTT3=
EXTT4=
EXTT5=
EXTT6=
EXTT7=
EXTT8=
EXTT9=
EXTT10=
EXTT11=
PLAYORDER=
